<svg width="70" height="70" viewBox="0 0 117 117" fill="none" xmlns="http://www.w3.org/2000/svg">
<path d="M0 35C0 15.67 15.8136 0 35.3208 0H81.6792C101.186 0 117 15.67 117 35V70H35.3208C15.8136 70 0 54.3301 0 35Z" fill="#4845D2"/>
<path d="M81.6793 13.125H35.3208C23.1288 13.125 13.2453 22.9188 13.2453 35C13.2453 47.0812 23.1288 56.875 35.3208 56.875H81.6793C93.8712 56.875 103.755 47.0812 103.755 35C103.755 22.9188 93.8712 13.125 81.6793 13.125Z" fill="#A5B4FC"/>
<path d="M35.3208 45.9375C41.4167 45.9375 46.3585 41.0406 46.3585 35C46.3585 28.9594 41.4167 24.0625 35.3208 24.0625C29.2248 24.0625 24.283 28.9594 24.283 35C24.283 41.0406 29.2248 45.9375 35.3208 45.9375Z" fill="black"/>
<path d="M30.9057 32.8125C32.1249 32.8125 33.1132 31.8331 33.1132 30.625C33.1132 29.4169 32.1249 28.4375 30.9057 28.4375C29.6865 28.4375 28.6981 29.4169 28.6981 30.625C28.6981 31.8331 29.6865 32.8125 30.9057 32.8125Z" fill="white"/>
<path d="M83.8868 45.9375C89.9828 45.9375 94.9245 41.0406 94.9245 35C94.9245 28.9594 89.9828 24.0625 83.8868 24.0625C77.7908 24.0625 72.8491 28.9594 72.8491 35C72.8491 41.0406 77.7908 45.9375 83.8868 45.9375Z" fill="black"/>
<path d="M79.4717 32.8125C80.6909 32.8125 81.6793 31.8331 81.6793 30.625C81.6793 29.4169 80.6909 28.4375 79.4717 28.4375C78.2525 28.4375 77.2642 29.4169 77.2642 30.625C77.2642 31.8331 78.2525 32.8125 79.4717 32.8125Z" fill="white"/>
</svg>
